<svg width="186" height="149" viewBox="0 0 186 149" fill="none" xmlns="http://www.w3.org/2000/svg">
<path d="M92.9939 111.75H37.1886V65.1875H18.5869V139.688C18.5869 144.838 22.7432 149 27.8878 149H102.295C107.439 149 111.596 144.838 111.596 139.688V65.1875H92.9939V111.75ZM184.433 41.3824L159.641 4.13242C157.897 1.54238 154.99 0 151.88 0H34.1077C30.9977 0 28.0912 1.54238 26.3764 4.13242L1.58371 41.3824C-2.54356 47.5811 1.87436 55.875 9.31507 55.875H176.702C184.113 55.875 188.531 47.5811 184.433 41.3824ZM148.799 144.344C148.799 146.905 150.892 149 153.45 149H162.751C165.308 149 167.401 146.905 167.401 144.344V65.1875H148.799V144.344Z" fill="#537A63"/>
</svg>
