<svg width="15" height="13" viewBox="0 0 15 13" fill="none" xmlns="http://www.w3.org/2000/svg">
<path d="M13.3333 8.125C13.3333 8.125 11.6667 10.4774 11.6667 11.375C11.6667 12.2726 12.413 13 13.3333 13C14.2536 13 15 12.2726 15 11.375C15 10.4774 13.3333 8.125 13.3333 8.125ZM13.0893 5.51129L7.6807 0.23791C7.51794 0.0792187 7.30465 0 7.09137 0C6.87809 0 6.66481 0.0792187 6.50231 0.23791L4.37782 2.30928L2.13354 0.120859C1.97078 -0.037832 1.70697 -0.037832 1.54447 0.120859L0.955408 0.695195C0.792907 0.853887 0.792907 1.11109 0.955408 1.26953L3.19995 3.4577L0.73223 5.86371C-0.244077 6.81535 -0.244077 8.35859 0.73223 9.31049L3.78407 12.286C4.27209 12.7618 4.91194 13 5.55152 13C6.19137 13 6.83095 12.7621 7.31898 12.286L13.0891 6.66021C13.4146 6.34283 13.4146 5.82867 13.0893 5.51129ZM10.0627 7.31326H1.71687C1.75229 7.21576 1.80984 7.11064 1.91036 7.01289L2.25281 6.679L4.37808 4.60688L5.90413 6.09477C6.22939 6.41189 6.757 6.41189 7.08226 6.09477C7.40752 5.77764 7.40752 5.26322 7.08226 4.94609L5.55621 3.4582L7.09137 1.96143L11.3216 6.08588L10.0627 7.31326Z" fill="#D12E34"/>
</svg>
